<svg xmlns="http://www.w3.org/2000/svg" viewBox="0 0 300 250" width="300" height="250" role="img" aria-label="Phone Cases For Her — Cases with personal polish.">
  <defs>
    <linearGradient id="bg" x1="0" y1="0" x2="1" y2="1">
      <stop offset="0" stop-color="#FFF8F4"/>
      <stop offset="1" stop-color="#F8E2D9"/>
    </linearGradient>
  </defs>
  <rect width="300" height="250" fill="url(#bg)"/>
  <rect x="0" y="0" width="300" height="6" fill="#C77A8B"/>
  <g transform="translate(206 28)" opacity="0.95">
    <rect x="0" y="0" width="78" height="160" rx="14" fill="#FFFFFF" stroke="#C77A8B" stroke-width="2"/>
    <path d="M14 22 Q26 14 39 22 Q52 14 64 22 Q64 36 39 56 Q14 36 14 22 Z" fill="#C77A8B" opacity="0.85"/>
    <circle cx="22" cy="92" r="5" fill="#E7C98A" opacity="0.85"/>
    <circle cx="56" cy="124" r="5" fill="#C77A8B" opacity="0.6"/>
  </g>
  <text x="20" y="62" font-family="Cormorant Garamond,Georgia,serif" font-style="italic" font-weight="600" font-size="24" fill="#2B1D24" letter-spacing="-0.01em">Phone Cases</text>
  <text x="20" y="92" font-family="Cormorant Garamond,Georgia,serif" font-style="italic" font-weight="600" font-size="24" fill="#2B1D24" letter-spacing="-0.01em">For Her.</text>
  <line x1="20" y1="106" x2="64" y2="106" stroke="#C77A8B" stroke-width="3"/>
  <text x="20" y="134" font-family="system-ui,-apple-system,Segoe UI,sans-serif" font-weight="500" font-size="12" fill="#2B1D24" opacity="0.78">Cases with</text>
  <text x="20" y="150" font-family="system-ui,-apple-system,Segoe UI,sans-serif" font-weight="500" font-size="12" fill="#2B1D24" opacity="0.78">personal polish.</text>
  <rect x="20" y="186" width="148" height="40" rx="20" fill="#8A4E62"/>
  <text x="94" y="212" font-family="system-ui,-apple-system,Segoe UI,sans-serif" font-weight="700" font-size="13" fill="#FFFFFF" text-anchor="middle" letter-spacing="0.02em">SHOP THE LOOK →</text>
</svg>
