<svg xmlns="http://www.w3.org/2000/svg" viewBox="0 0 512 512">
  <g stroke-linecap="round" stroke-linejoin="round">
    <g transform="rotate(-36 256 256)">
      <rect x="229" y="94" width="54" height="305" rx="13" fill="#D4B47A" stroke="#1F2329" stroke-width="13"/>
      <path d="M229 94 L256 47 L283 94" fill="#E0691A" stroke="#1F2329" stroke-width="13"/>
      <path d="M229 399 H283 L256 456Z" fill="#1F2329" stroke="#1F2329" stroke-width="10"/>
      <path d="M256 126 V360" stroke="#E0691A" stroke-width="8" opacity="0.9"/>
    </g>
    <g transform="rotate(39 256 256)">
      <path d="M246 73 C287 80 309 116 297 154 L263 132 L237 158 L262 185 C219 202 176 174 168 131 L88 318 C80 336 88 355 105 362 L113 366 C132 374 153 364 160 345 L238 157" fill="none" stroke="#1F2329" stroke-width="18"/>
      <circle cx="117" cy="337" r="18" fill="#E0691A" stroke="#1F2329" stroke-width="10"/>
    </g>
  </g>
</svg>